<svg xmlns="http://www.w3.org/2000/svg" width="21" height="26" viewBox="0 0 21 26">
  <defs>
    <style>
      .cls-1 {
        fill: #edaa79;
      }

      .cls-2 {
        fill: #ed995c;
      }

      .cls-3 {
        fill: #330a22;
      }
    </style>
  </defs>
  <g id="Layer_2" data-name="Layer 2">
    <g id="Layer_1-2" data-name="Layer 1">
      <g>
        <rect class="cls-1" x="14" y="10" width="3" height="3"/>
        <rect class="cls-1" x="2" y="4" width="2" height="3"/>
        <rect class="cls-1" x="6" y="4" width="2" height="6"/>
        <rect class="cls-1" x="9" y="4" width="2" height="6"/>
        <rect class="cls-1" x="12" y="4" width="2" height="6"/>
        <rect class="cls-1" x="3" y="9" width="12" height="6"/>
        <rect class="cls-1" x="3" y="14" width="2" height="1"/>
        <rect class="cls-1" x="4" y="14" width="10" height="2"/>
        <rect class="cls-1" x="4" y="15" width="9" height="2"/>
        <rect class="cls-1" x="5" y="16" width="7" height="10"/>
        <rect class="cls-1" x="16" y="9" width="2" height="3"/>
        <rect class="cls-1" x="14" y="13" width="2" height="1"/>
        <rect class="cls-1" x="17.5" y="8.5" width="2" height="3" transform="translate(28.5 -8.5) rotate(90)"/>
        <rect class="cls-2" x="5" y="10" width="1" height="1"/>
        <rect class="cls-2" x="8" y="10" width="1" height="1"/>
        <rect class="cls-2" x="11" y="10" width="1" height="1"/>
        <rect class="cls-2" x="14" y="10" width="2" height="1"/>
        <rect class="cls-2" x="6" y="11" width="2" height="1"/>
        <rect class="cls-2" x="9" y="11" width="2" height="1"/>
        <rect class="cls-2" x="12" y="11" width="2" height="1"/>
        <rect class="cls-2" x="16" y="9" width="1" height="1"/>
        <rect class="cls-2" x="9" y="17" width="3" height="1"/>
        <rect class="cls-2" x="3" y="13" width="1" height="2"/>
        <rect class="cls-2" x="4" y="15" width="1" height="2"/>
        <rect class="cls-2" x="5" y="17" width="2" height="1"/>
        <rect class="cls-2" x="5" y="18" width="1" height="8"/>
        <rect class="cls-2" x="6" y="25" width="5" height="1"/>
        <rect class="cls-2" x="11" y="18" width="1" height="8"/>
        <rect class="cls-1" x="1" y="1" width="2" height="3"/>
        <rect class="cls-1" x="3" y="4" width="2" height="5"/>
        <rect class="cls-1" x="2" y="7" width="2" height="5"/>
        <rect class="cls-1" x="2" y="3" width="2" height="2"/>
        <rect class="cls-3" x="5" y="4" width="1" height="6"/>
        <rect class="cls-3" x="3" y="15" width="1" height="2"/>
        <rect class="cls-3" x="4" y="17" width="1" height="9"/>
        <rect class="cls-3" x="12" y="17" width="1" height="9"/>
        <rect class="cls-3" x="13" y="16" width="1" height="1"/>
        <rect class="cls-3" x="14" y="15" width="1" height="1"/>
        <rect class="cls-3" x="15" y="14" width="1" height="1"/>
        <rect class="cls-3" x="6" y="10" width="2" height="1"/>
        <rect class="cls-3" x="9" y="10" width="2" height="1"/>
        <rect class="cls-3" x="12" y="10" width="2" height="1"/>
        <rect class="cls-3" x="8" y="4" width="1" height="6"/>
        <rect class="cls-3" x="6" y="3" width="2" height="1"/>
        <rect class="cls-3" x="9" y="3" width="2" height="1"/>
        <rect class="cls-3" x="12" y="3" width="2" height="1"/>
        <rect class="cls-3" x="11" y="4" width="1" height="6"/>
        <rect class="cls-3" x="14" y="4" width="1" height="6"/>
        <rect class="cls-3" x="17" y="12" width="1" height="1"/>
        <rect class="cls-3" x="20" y="9" width="1" height="2"/>
        <rect class="cls-3" x="16" y="8" width="4" height="1"/>
        <rect class="cls-3" x="15" y="9" width="1" height="1"/>
        <rect class="cls-3" x="16" y="13" width="1" height="1"/>
        <rect class="cls-3" x="18" y="11" width="2" height="1"/>
        <rect class="cls-3" x="1" y="4" width="1" height="2"/>
        <rect class="cls-3" y="1" width="1" height="3"/>
        <rect class="cls-3" x="3" y="1" width="1" height="2"/>
        <rect class="cls-3" x="1" width="2" height="1"/>
        <rect class="cls-3" x="4" y="3" width="1" height="1"/>
        <rect class="cls-3" x="2" y="6" width="1" height="9"/>
      </g>
    </g>
  </g>
</svg>